<svg xmlns="http://www.w3.org/2000/svg" width="16.513" height="16.513" viewBox="0 0 16.513 16.513"><path fill="#04897C" d="M12.586 16.513h-8.66C1.76 16.513 0 14.753 0 12.587v-8.66C0 1.762 1.76 0 3.926 0h8.66c2.165 0 3.926 1.762 3.926 3.927v8.66c0 2.165-1.76 3.926-3.926 3.926zM3.926.75C2.176.75.75 2.176.75 3.927v8.66c0 1.75 1.424 3.176 3.176 3.176h8.66c1.75 0 3.176-1.425 3.176-3.176v-8.66c0-1.75-1.424-3.175-3.176-3.175h-8.66z"/><path fill="#04897C" d="M9.314 4.807l1.684 1.684-4.262 4.263-1.682-1.685 4.26-4.26zm2.96-.407l-.75-.75c-.29-.29-.76-.29-1.052 0l-.72.72 1.685 1.683.84-.84c.223-.224.223-.587-.002-.813zm-8.102 7.035c-.03.138.093.26.232.228l1.876-.455-1.682-1.684-.426 1.91zm0 0"/><path fill="#04897C" d="M11.484 11.902c0 .215-.218.39-.488.39h-6.44c-.27 0-.487-.175-.487-.39v-.066c0-.215.217-.39.487-.39h6.44c.27 0 .487.175.487.39v.066z"/></svg>