<svg xmlns="http://www.w3.org/2000/svg" width="16.513" height="16.513" viewBox="0 0 16.513 16.513"><g fill="#04897C"><path d="M11.51 6.378l-.537.538c1.14.602 1.676 1.542 1.88 2.01-.472.605-1.88 2.08-4.695 2.08-.468 0-.805-.067-1.208-.135l-.538.537c.538.2 1.144.27 1.745.27 3.82 0 5.43-2.682 5.43-2.682s-.4-1.612-2.077-2.617zm0 0"/><path d="M10.908 7.652c0-.2 0-.402-.07-.537l-3.216 3.152c.203 0 .402.066.602.066 1.476 0 2.684-1.205 2.684-2.68zm0 0M13.118 2.894l-2.95 2.95c-.537-.137-1.205-.27-1.945-.27-4.49 0-5.36 3.42-5.36 3.42s.67 1.205 2.213 2.01l-2.213 2.144v.47h.468L13.59 3.362v-.466h-.472zm-7.575 7.573C4.473 10 3.867 9.262 3.6 8.925c.202-.467.74-1.473 2.077-2.144-.065.27-.134.537-.134.872 0 .737.337 1.476.87 1.945l-.87.87zm1.476-2.28l-.672.135s-.2-.337-.2-.805c0-.536.265-1.005.265-1.005.338-.202.875-.202.875-.202s-.337.606-.337 1.142c-.065.468.07.736.07.736zm0 0"/></g><path fill="#04897C" d="M12.587 16.513h-8.66C1.76 16.513 0 14.753 0 12.587v-8.66C0 1.762 1.76 0 3.926 0h8.66c2.166 0 3.927 1.762 3.927 3.927v8.66c0 2.165-1.762 3.926-3.926 3.926zM3.927.75C2.174.75.75 2.176.75 3.928v8.66c0 1.75 1.425 3.176 3.176 3.176h8.66c1.752 0 3.176-1.425 3.176-3.176v-8.66c0-1.752-1.424-3.176-3.175-3.176h-8.66z"/></svg>