<svg xmlns="http://www.w3.org/2000/svg" width="16.513" height="16.513" viewBox="0 0 16.513 16.513"><path fill="#04897C" d="M12.586 16.513h-8.66C1.76 16.513 0 14.753 0 12.587v-8.66C0 1.762 1.76 0 3.926 0h8.66c2.165 0 3.926 1.762 3.926 3.927v8.66c0 2.165-1.76 3.926-3.926 3.926zM3.926.75C2.176.75.75 2.176.75 3.927v8.66c0 1.75 1.425 3.176 3.176 3.176h8.66c1.75 0 3.176-1.425 3.176-3.176v-8.66c0-1.75-1.425-3.175-3.176-3.175h-8.66z"/><path fill="#04897C" d="M8.285 5.11c-4.49 0-5.36 3.417-5.36 3.417s1.476 2.75 5.295 2.75c3.82 0 5.43-2.68 5.43-2.68S12.78 5.11 8.286 5.11zm-1.81 1.004c.337-.2.874-.2.874-.2s-.338.603-.338 1.07c0 .474.134.74.134.74l-.737.134s-.2-.337-.2-.805c0-.536.264-.94.264-.94zm1.744 4.49c-2.75 0-4.158-1.54-4.56-2.143.203-.467.74-1.475 2.078-2.142-.065.268-.134.533-.134.87 0 1.474 1.208 2.682 2.68 2.682 1.477 0 2.685-1.208 2.685-2.682 0-.337-.07-.602-.135-.87 1.34.602 1.876 1.675 2.08 2.144-.473.6-1.88 2.143-4.696 2.143zm0 0"/></svg>