<svg xmlns="http://www.w3.org/2000/svg" width="16.513" height="16.513" viewBox="0 0 16.513 16.513"><path fill="#04897C" d="M12.587 16.513h-8.66C1.76 16.513 0 14.753 0 12.587v-8.66C0 1.762 1.76 0 3.926 0h8.66c2.166 0 3.927 1.762 3.927 3.927v8.66c0 2.165-1.762 3.926-3.926 3.926zM3.927.75C2.174.75.75 2.176.75 3.928v8.66c0 1.75 1.425 3.176 3.176 3.176h8.66c1.752 0 3.176-1.425 3.176-3.176v-8.66c0-1.752-1.424-3.176-3.175-3.176h-8.66z"/><path fill="#04897C" d="M12.226 4.863c-.344-.344-.758-.516-1.243-.516H9.028c-.054 0-.095.012-.126.04-.03.027-.05.066-.06.12-.01.05-.018.1-.02.142 0 .042 0 .096.004.162l.006.122c.013.032.016.06.013.082-.005.022.01.04.042.055.033.015.05.027.05.035 0 .008.022.014.07.018l.07.006h1.906c.27 0 .5.095.69.286.192.192.287.42.287.69v4.3c0 .27-.095.5-.287.69-.19.192-.422.29-.69.29H9.028c-.054 0-.095.01-.126.04-.03.026-.05.064-.06.118-.01.052-.017.1-.02.143 0 .042 0 .097.004.162.005.064.006.105.006.122 0 .053.02.1.06.137.037.037.083.057.137.057h1.953c.485 0 .9-.172 1.243-.517.345-.343.517-.758.517-1.242V6.106c-.002-.484-.173-.9-.517-1.243zm0 0"/><path fill="#04897C" d="M6.9 11.537c-.188 0-.357-.07-.49-.204-.134-.133-.205-.303-.205-.49v-.98h-1.74c-.186 0-.354-.068-.488-.2-.136-.14-.206-.307-.206-.494V7.342c0-.188.073-.358.208-.49.132-.132.3-.203.486-.203h1.74v-.98c0-.188.072-.357.205-.49.27-.268.712-.267.978 0l2.587 2.587c.133.133.204.303.204.49s-.072.354-.205.488l-2.587 2.587c-.132.133-.302.205-.49.205zM4.55 9.084h2.434v1.553l2.38-2.38-2.402-2.402.02 1.574H4.55v1.654z"/></svg>