<svg xmlns="http://www.w3.org/2000/svg" width="28.42" height="28.42" viewBox="0 0 28.42 28.42"><g fill="#FFF"><path d="M22.388 10.69V7.82c0-4.086-3.67-7.41-8.176-7.41-4.51 0-8.18 3.324-8.18 7.41v2.87c-1.74.3-3.067 1.812-3.067 3.64v9.986c0 2.037 1.658 3.693 3.695 3.693h15.1c2.038 0 3.696-1.657 3.696-3.694v-9.99c0-1.823-1.328-3.337-3.068-3.636zM7.054 7.82c0-3.522 3.212-6.39 7.158-6.39 3.945 0 7.155 2.867 7.155 6.39v2.81H7.054V7.82zm17.38 16.496c0 1.474-1.2 2.672-2.673 2.672H6.66c-1.472 0-2.67-1.198-2.67-2.672v-9.99c0-1.472 1.198-2.67 2.67-2.67h15.1c1.474 0 2.675 1.198 2.675 2.67v9.99zm0 0"/><path d="M14.212 14.72c-1.13 0-2.047.92-2.047 2.047v3.065c0 1.127.918 2.047 2.047 2.047 1.125 0 2.044-.92 2.044-2.048v-3.065c0-1.127-.92-2.047-2.044-2.047zm1.02 5.112c0 .563-.46 1.022-1.02 1.022-.565 0-1.024-.46-1.024-1.022v-3.065c0-.562.46-1.023 1.023-1.023.562 0 1.022.46 1.022 1.023v3.065zm0 0"/></g></svg>