<svg xmlns="http://www.w3.org/2000/svg" viewBox="0 0 58 58"><path d="M53.566 45.283l-9.552-4.776C42.78 39.89 42 38.627 42 37.247V33.5c.268-.305.576-.698.904-1.162 1.302-1.838 2.286-3.86 2.97-5.984C47.097 25.977 48 24.844 48 23.5v-4c0-.88-.39-1.667-1-2.217V11.5s1.187-9-11-9c-12.188 0-11 9-11 9v5.783c-.61.55-1 1.337-1 2.217v4c0 1.054.554 1.98 1.383 2.517C26.383 30.37 29 33.5 29 33.5v3.655c0 1.333-.728 2.56-1.9 3.198l-8.92 4.867C15.603 46.625 14 49.326 14 52.26v3.24h44v-3.043c0-3.038-1.717-5.815-4.434-7.174z" fill="#7383BF"/><path d="M18.18 45.22l5.946-3.243c-.034-.033-.005-.043.065-.036l2.91-1.586c1.172-.64 1.9-1.865 1.9-3.2V33.5s-1.062-1.275-2.092-3.323v-.003c-.136-.268-.27-.55-.4-.844l-.054-.12c-.133-.304-.263-.617-.386-.945l-.023-.065c-.108-.29-.21-.59-.306-.896l-.078-.25c-.1-.34-.196-.683-.278-1.04-.83-.533-1.384-1.46-1.384-2.514v-4c0-.88.39-1.667 1-2.217v-5.648C23.587 10.54 21.397 9.5 18 9.5c-9.563 0-10 8-10 8v4.995c-.526.475-1 1.154-1 1.914v3.454c0 .91.48 1.71 1.194 2.174.863 3.758 3.76 6.463 3.76 6.463v3.158c0 1.15-.63 2.21-1.64 2.762L3.61 46.622C1.385 47.836 0 50.168 0 52.702V55.5h14v-3.24c0-2.934 1.603-5.635 4.18-7.04z" fill="#556080"/></svg>