<svg xmlns="http://www.w3.org/2000/svg" width="16.513" height="16.513" viewBox="0 0 16.513 16.513"><path fill="#04897C" d="M12.587 16.513h-8.66C1.76 16.513 0 14.753 0 12.587v-8.66C0 1.762 1.76 0 3.926 0h8.66c2.166 0 3.927 1.762 3.927 3.927v8.66c0 2.165-1.762 3.926-3.926 3.926zM3.927.75C2.174.75.75 2.176.75 3.927v8.66c0 1.75 1.425 3.176 3.176 3.176h8.66c1.752 0 3.176-1.425 3.176-3.176v-8.66c0-1.75-1.424-3.175-3.175-3.175h-8.66z"/><g fill="#04897C"><path d="M11.073 7.777l.13-1.582h.232c.175 0 .315-.14.315-.314v-.575c0-.544-.442-.986-.985-.986h-1.1v-.147c0-.495-.4-.897-.896-.897h-.922c-.494 0-.897.402-.897.897v.146H5.853c-.543 0-.985.44-.985.985v.576c0 .175.14.315.316.315h.23l.43 5.15c.05.618.577 1.103 1.198 1.103H9.58c.612 0 1.133-.474 1.195-1.082.854-.177 1.5-.934 1.5-1.84-.002-.795-.5-1.477-1.2-1.75zm-3.49-3.604c0-.146.12-.266.265-.266h.92c.148 0 .268.12.268.266v.146H7.582v-.147zm-2.085 1.39v-.26c0-.195.16-.353.354-.353h4.913c.195 0 .354.158.354.354v.26H5.497zm4.08 6.253H7.04c-.294 0-.543-.23-.568-.523l-.426-5.098h4.524l-.12 1.455h-.058c-1.036 0-1.88.842-1.88 1.878 0 .946.705 1.732 1.616 1.86-.064.246-.29.428-.55.428zm.815-1.042c-.688 0-1.247-.56-1.247-1.247s.56-1.247 1.247-1.247c.688 0 1.248.56 1.248 1.247 0 .688-.56 1.247-1.247 1.247zm0 0"/><path d="M10.84 9.527l.296-.298c.124-.124.124-.324 0-.447-.123-.123-.323-.123-.446 0l-.297.298-.298-.297c-.124-.123-.323-.123-.446 0-.125.123-.125.323 0 .446l.297.297-.3.298c-.123.124-.123.324 0 .447.063.062.143.092.224.092.082 0 .163-.03.225-.092l.298-.298.297.298c.062.062.143.092.224.092.08 0 .16-.03.223-.092.124-.124.124-.323 0-.447l-.298-.298zm0 0"/></g></svg>