<svg xmlns="http://www.w3.org/2000/svg" viewBox="0 0 294.812 294.812" width="512" height="512"><path d="M251.654 43.164c-57.48-57.48-151.006-57.48-208.485 0C23 63.33 9.206 88.667 3.273 116.434c-5.776 27.037-3.884 55.05 5.47 81.006 1.125 3.117 4.564 4.733 7.68 3.61 3.118-1.124 4.734-4.562 3.61-7.68-8.595-23.848-10.333-49.585-5.025-74.43 5.446-25.496 18.118-48.766 36.644-67.292 52.8-52.8 138.714-52.8 191.515 0 25.144 25.146 39.22 58.57 39.633 94.12.413 35.484-12.81 69.176-37.234 94.868-.29.304-.576.61-.862.916-.506.54-1.01 1.083-1.54 1.61-52.8 52.802-138.713 52.802-191.514 0-.28-.28-.555-.566-.826-.852-.014-.554-.026-1.1-.026-1.638 0-1.208.023-2.41.067-3.61.014-.4.044-.798.064-1.198.04-.797.076-1.594.134-2.387.035-.473.086-.94.128-1.412.063-.715.122-1.43.2-2.14.055-.503.127-1 .19-1.5.085-.676.166-1.353.266-2.025.076-.512.166-1.02.25-1.528.107-.655.21-1.31.332-1.96.095-.516.204-1.026.308-1.538.13-.64.256-1.28.398-1.914.115-.515.243-1.027.366-1.54.15-.624.3-1.25.46-1.87.136-.513.282-1.023.424-1.534.17-.612.34-1.225.524-1.833.153-.51.317-1.016.48-1.522.19-.6.383-1.202.586-1.798.172-.503.352-1.003.532-1.503.213-.593.427-1.185.65-1.773.19-.497.388-.99.586-1.482.233-.58.468-1.162.712-1.738.208-.49.422-.976.638-1.462.253-.57.51-1.14.773-1.705.226-.48.456-.96.69-1.436.273-.56.55-1.12.834-1.676.24-.47.486-.938.735-1.404.293-.552.592-1.102.897-1.65.257-.46.517-.917.78-1.372.315-.54.634-1.08.96-1.615.272-.45.548-.898.828-1.344.334-.53.673-1.057 1.017-1.58.288-.44.578-.876.873-1.31.353-.52.714-1.034 1.078-1.547.303-.427.606-.853.916-1.274.372-.508.753-1.01 1.136-1.51.317-.415.633-.83.957-1.238.393-.497.795-.988 1.198-1.477.33-.4.66-.8.995-1.195.414-.486.837-.965 1.26-1.443.343-.387.683-.774 1.03-1.154.435-.474.878-.94 1.322-1.404.354-.372.706-.745 1.066-1.112.455-.462.92-.914 1.384-1.368.364-.355.725-.714 1.095-1.064.478-.452.967-.893 1.454-1.335.372-.337.74-.678 1.116-1.01.503-.443 1.02-.873 1.532-1.306.376-.317.748-.64 1.13-.95.53-.435 1.074-.856 1.616-1.28.378-.295.75-.597 1.132-.887.57-.433 1.154-.85 1.736-1.27.367-.267.727-.54 1.1-.8.64-.45 1.298-.886 1.953-1.323.324-.215.64-.438.965-.65.854-.555 1.723-1.092 2.598-1.622.136-.082.268-.17.405-.252 1.012-.606 2.038-1.194 3.076-1.766.355-.195.72-.378 1.08-.57.688-.367 1.375-.738 2.076-1.09.45-.226.91-.438 1.362-.657.572-.277 1.142-.557 1.72-.824 10.876 10.388 25.383 16.27 40.44 16.27 15.06 0 29.567-5.883 40.442-16.272 21.23 9.825 38.604 27.454 48.037 48.892 1.335 3.032 4.874 4.41 7.91 3.076 3.032-1.335 4.41-4.876 3.074-7.908-10.318-23.45-28.28-42.19-51.018-53.5 6.597-9.678 10.166-21.105 10.166-32.897 0-32.317-26.292-58.61-58.61-58.61-3.312 0-6 2.688-6 6s2.688 6 6 6c25.702 0 46.61 20.91 46.61 46.61 0 11.492-4.27 22.558-12.025 31.157l-.003.003c-8.854 9.818-21.458 15.45-34.582 15.45s-25.73-5.632-34.582-15.45c0-.002-.003-.003-.005-.004-7.753-8.602-12.023-19.665-12.023-31.155 0-12.544 4.91-24.312 13.83-33.134 2.355-2.33 2.375-6.13.044-8.485-2.33-2.358-6.13-2.376-8.485-.047-11.212 11.09-17.388 25.887-17.388 41.66 0 11.78 3.56 23.2 10.146 32.872l-.174.09c-.468.235-.925.483-1.39.722-.71.368-1.423.734-2.124 1.117-.496.27-.98.554-1.472.83-.655.372-1.31.74-1.957 1.124-.5.298-.993.606-1.49.91-.62.383-1.24.764-1.85 1.157-.5.32-.99.65-1.482.98-.593.394-1.185.79-1.77 1.197-.49.342-.975.69-1.46 1.04-.57.41-1.138.824-1.7 1.245-.48.36-.955.727-1.43 1.095-.55.427-1.095.857-1.635 1.294-.468.378-.932.76-1.394 1.146-.532.444-1.06.893-1.58 1.347-.454.392-.904.788-1.35 1.19-.515.462-1.023.93-1.528 1.402-.436.407-.87.815-1.3 1.23-.5.482-.99.97-1.48 1.462-.42.42-.837.837-1.247 1.262-.485.503-.96 1.015-1.436 1.527-.398.428-.798.854-1.188 1.29-.475.527-.937 1.066-1.4 1.603-.374.432-.75.86-1.116 1.297-.47.563-.927 1.137-1.386 1.71-.34.425-.69.845-1.024 1.276-.482.62-.948 1.25-1.416 1.88-.294.397-.596.786-.884 1.186-.592.82-1.165 1.652-1.733 2.488-.15.22-.307.434-.455.655-.707 1.055-1.394 2.123-2.063 3.203-.23.373-.448.754-.674 1.13-.432.718-.867 1.436-1.284 2.165-.26.455-.506.918-.76 1.377-.364.66-.73 1.318-1.08 1.986-.26.496-.507.997-.76 1.496-.326.644-.653 1.287-.966 1.938-.25.518-.486 1.042-.727 1.563-.296.643-.593 1.285-.877 1.934-.234.536-.458 1.076-.683 1.615-.27.647-.54 1.294-.798 1.946-.217.55-.425 1.1-.633 1.65-.246.655-.49 1.31-.723 1.97-.2.558-.39 1.12-.58 1.683-.224.66-.44 1.324-.65 1.99-.18.568-.353 1.137-.523 1.707-.2.673-.393 1.348-.58 2.026-.158.572-.313 1.145-.462 1.72-.177.686-.345 1.374-.51 2.064-.136.576-.272 1.15-.4 1.73-.153.698-.296 1.4-.436 2.105-.116.576-.233 1.152-.34 1.73-.13.72-.248 1.44-.365 2.164-.092.57-.19 1.138-.272 1.71-.11.746-.2 1.496-.295 2.246-.07.556-.145 1.11-.206 1.67-.086.785-.152 1.576-.22 2.367-.047.527-.102 1.052-.14 1.582-.064.883-.106 1.77-.15 2.658-.02.44-.053.88-.07 1.32-.047 1.333-.074 2.67-.074 4.012 0 1.45.05 2.82.108 4.332.014.35.063.69.133 1.022.005.025.008.05.014.077.074.327.178.64.303.945l.036.09c.13.3.283.586.457.858.022.034.043.068.065.1.18.268.378.52.595.753.016.017.027.038.043.055l.792.843c.598.64 1.196 1.28 1.82 1.902 28.74 28.74 66.49 43.11 104.243 43.11s75.503-14.37 104.243-43.11c.625-.623 1.223-1.262 1.82-1.9l.793-.844c26.59-27.97 40.985-64.647 40.536-103.275-.448-38.705-15.772-75.095-43.146-102.47z" fill="#009e94"/></svg>