<svg xmlns="http://www.w3.org/2000/svg" width="28.425" height="28.424" viewBox="0 0 28.425 28.424"><path fill="#FFF" d="M28.425 14.21C28.425 6.378 22.048 0 14.212 0 6.377 0 0 6.377 0 14.21c0 4.14 1.778 7.872 4.613 10.472l-.013.013.46.39c.03.024.063.043.093.07.244.2.5.394.756.58l.25.18c.28.19.562.37.85.542.065.038.128.072.19.11.317.178.643.35.973.505l.074.036c1.08.5 2.233.868 3.437 1.088.034.004.063.01.096.015.373.066.752.117 1.136.15.045.006.094.01.14.015.38.03.767.05 1.158.05.386 0 .77-.02 1.148-.05.048-.006.096-.01.144-.01.38-.036.755-.088 1.125-.15.033-.004.067-.013.1-.018 1.185-.212 2.32-.572 3.386-1.062l.12-.054c.32-.15.63-.312.935-.484.077-.042.152-.086.23-.13.276-.164.55-.332.816-.518.096-.062.19-.133.283-.202.226-.162.45-.33.665-.506.048-.04.102-.074.15-.113l.472-.395-.015-.014c2.855-2.597 4.653-6.344 4.653-10.507zm-27.39 0c0-7.266 5.91-13.176 13.177-13.176S27.39 6.944 27.39 14.21c0 3.918-1.72 7.44-4.44 9.854-.15-.104-.302-.2-.46-.28L18.112 21.6c-.39-.197-.636-.59-.636-1.03V19.04c.1-.125.21-.267.32-.423.566-.8 1.02-1.69 1.352-2.647.655-.31 1.077-.964 1.077-1.7v-1.834c0-.446-.164-.88-.458-1.223V8.8c.024-.267.12-1.78-.975-3.03-.95-1.084-2.494-1.637-4.583-1.637-2.09 0-3.63.553-4.583 1.638-1.096 1.25-1 2.764-.975 3.03v2.414c-.292.34-.457.777-.457 1.223v1.833c0 .57.255 1.1.692 1.46.418 1.64 1.28 2.882 1.6 3.3v1.496c0 .422-.233.81-.6 1.013L5.8 23.765c-.128.07-.26.153-.388.248C2.728 21.6 1.034 18.1 1.034 14.21zm20.908 10.663c-.18.132-.365.26-.552.383l-.256.166c-.245.15-.492.293-.747.43-.055.026-.11.054-.167.084-.583.298-1.187.556-1.805.762-.02.008-.043.016-.065.022-.324.11-.652.202-.984.286h-.003c-.336.084-.674.15-1.015.21-.01 0-.02.002-.027.006-.32.05-.645.087-.968.117-.06.003-.116.006-.175.012-.32.022-.644.038-.966.038-.327 0-.653-.016-.978-.04l-.168-.014c-.328-.027-.654-.068-.978-.118l-.042-.008c-.685-.115-1.356-.282-2.012-.5-.02-.01-.04-.017-.06-.024-.326-.108-.647-.232-.962-.37h-.007c-.297-.13-.59-.27-.88-.423-.038-.02-.076-.038-.115-.06-.265-.14-.522-.29-.777-.45-.074-.047-.15-.095-.223-.146-.234-.15-.466-.312-.692-.48-.022-.02-.044-.037-.067-.055l.047-.027 4.09-2.23c.7-.383 1.137-1.118 1.137-1.92v-1.86l-.12-.145c-.01-.013-1.126-1.37-1.55-3.214l-.046-.203-.177-.115c-.25-.16-.4-.428-.4-.718v-1.833c0-.24.104-.463.288-.633l.172-.154V8.774l-.005-.068c0-.013-.154-1.258.72-2.254.75-.852 2.03-1.284 3.807-1.284 1.77 0 3.048.43 3.795 1.274.875.986.73 2.254.73 2.264l-.004 2.947.172.153c.184.167.287.392.287.63v1.834c0 .368-.252.704-.61.814l-.257.08-.083.257c-.306.947-.74 1.82-1.29 2.6-.136.19-.268.36-.38.49l-.127.146v1.913c0 .832.462 1.58 1.207 1.954l4.375 2.188c.028.013.056.028.083.044-.055.04-.11.077-.167.117zm0 0"/></svg>