<?xml version="1.0" encoding="utf-8"?>
<!-- Generator: Adobe Illustrator 16.0.0, SVG Export Plug-In . SVG Version: 6.00 Build 0)  -->
<!DOCTYPE svg PUBLIC "-//W3C//DTD SVG 1.1//EN" "http://www.w3.org/Graphics/SVG/1.1/DTD/svg11.dtd">
<svg version="1.1" id="Layer_1" xmlns="http://www.w3.org/2000/svg" xmlns:xlink="http://www.w3.org/1999/xlink" x="0px" y="0px"
	 width="16.513px" height="16.513px" viewBox="0 0 16.513 16.513" enable-background="new 0 0 16.513 16.513" xml:space="preserve">
<g>
	<g>
		<path fill="#04897C" d="M12.586,16.513h-8.66C1.761,16.513,0,14.752,0,12.587v-8.66C0,1.762,1.761,0,3.926,0h8.66
			c2.165,0,3.926,1.762,3.926,3.927v8.66C16.513,14.752,14.751,16.513,12.586,16.513z M3.926,0.751
			c-1.751,0-3.176,1.424-3.176,3.175v8.66c0,1.751,1.424,3.176,3.176,3.176h8.66c1.751,0,3.176-1.425,3.176-3.176v-8.66
			c0-1.751-1.424-3.175-3.176-3.175H3.926z"/>
	</g>
	<g>
		<g>
			<path fill="#04897C" d="M9.314,4.807l1.684,1.684l-4.262,4.262L5.054,9.068L9.314,4.807z M12.275,4.4l-0.751-0.75
				c-0.29-0.29-0.761-0.29-1.052,0L9.753,4.369l1.684,1.684l0.839-0.839C12.5,4.989,12.5,4.626,12.275,4.4L12.275,4.4z
				 M4.172,11.435c-0.031,0.138,0.093,0.261,0.232,0.228l1.876-0.455L4.598,9.524L4.172,11.435z M4.172,11.435"/>
		</g>
		<path fill="#04897C" d="M11.484,11.902c0,0.215-0.218,0.39-0.488,0.39H4.557c-0.27,0-0.488-0.175-0.488-0.39v-0.066
			c0-0.215,0.218-0.39,0.488-0.39h6.439c0.27,0,0.488,0.175,0.488,0.39V11.902z"/>
	</g>
</g>
</svg>
