<?xml version="1.0" encoding="utf-8"?>
<!-- Generator: Adobe Illustrator 16.0.0, SVG Export Plug-In . SVG Version: 6.00 Build 0)  -->
<!DOCTYPE svg PUBLIC "-//W3C//DTD SVG 1.1//EN" "http://www.w3.org/Graphics/SVG/1.1/DTD/svg11.dtd">
<svg version="1.1" id="Layer_1" xmlns="http://www.w3.org/2000/svg" xmlns:xlink="http://www.w3.org/1999/xlink" x="0px" y="0px"
	 width="16.513px" height="16.513px" viewBox="0 0 16.513 16.513" enable-background="new 0 0 16.513 16.513" xml:space="preserve">
<g>
	<g>
		<path fill="#04897C" d="M12.586,16.513h-8.66C1.761,16.513,0,14.752,0,12.587v-8.66C0,1.762,1.761,0,3.926,0h8.66
			c2.165,0,3.926,1.762,3.926,3.927v8.66C16.513,14.752,14.751,16.513,12.586,16.513z M3.926,0.751
			c-1.751,0-3.176,1.424-3.176,3.175v8.66c0,1.751,1.425,3.176,3.176,3.176h8.66c1.751,0,3.176-1.425,3.176-3.176v-8.66
			c0-1.751-1.425-3.175-3.176-3.175H3.926z"/>
	</g>
	<g>
		<path fill="#04897C" d="M8.285,5.11c-4.491,0-5.361,3.417-5.361,3.417s1.477,2.75,5.296,2.75c3.82,0,5.431-2.681,5.431-2.681
			S12.779,5.11,8.285,5.11L8.285,5.11z M6.474,6.114c0.338-0.199,0.875-0.199,0.875-0.199S7.012,6.517,7.012,6.985
			c0,0.473,0.134,0.74,0.134,0.74L6.409,7.858c0,0-0.2-0.337-0.2-0.805C6.209,6.517,6.474,6.114,6.474,6.114L6.474,6.114z
			 M8.219,10.605c-2.75,0-4.157-1.542-4.56-2.144C3.863,7.993,4.4,6.985,5.738,6.318c-0.065,0.268-0.134,0.533-0.134,0.87
			c0,1.474,1.208,2.682,2.681,2.682c1.476,0,2.684-1.208,2.684-2.682c0-0.337-0.068-0.602-0.134-0.87
			c1.339,0.602,1.876,1.675,2.079,2.144C12.442,9.063,11.035,10.605,8.219,10.605L8.219,10.605z M8.219,10.605"/>
	</g>
</g>
</svg>
