<?xml version="1.0" encoding="utf-8"?>
<!-- Generator: Adobe Illustrator 16.0.0, SVG Export Plug-In . SVG Version: 6.00 Build 0)  -->
<!DOCTYPE svg PUBLIC "-//W3C//DTD SVG 1.1//EN" "http://www.w3.org/Graphics/SVG/1.1/DTD/svg11.dtd">
<svg version="1.1" id="Layer_1" xmlns="http://www.w3.org/2000/svg" xmlns:xlink="http://www.w3.org/1999/xlink" x="0px" y="0px"
	 width="16.513px" height="16.513px" viewBox="0 0 16.513 16.513" enable-background="new 0 0 16.513 16.513" xml:space="preserve">
<g>
	<g>
		<path fill="#04897C" d="M11.51,6.378l-0.537,0.538c1.14,0.602,1.676,1.542,1.879,2.009c-0.471,0.606-1.879,2.08-4.694,2.08
			c-0.468,0-0.805-0.066-1.208-0.134l-0.538,0.536c0.538,0.199,1.144,0.269,1.745,0.269c3.82,0,5.431-2.681,5.431-2.681
			S13.186,7.383,11.51,6.378L11.51,6.378z M11.51,6.378"/>
		<path fill="#04897C" d="M10.908,7.652c0-0.2,0-0.402-0.069-0.537l-3.217,3.152c0.203,0,0.402,0.066,0.602,0.066
			C9.7,10.333,10.908,9.128,10.908,7.652L10.908,7.652z M10.908,7.652"/>
		<path fill="#04897C" d="M13.118,2.894l-2.95,2.949C9.631,5.707,8.963,5.573,8.223,5.573c-4.49,0-5.36,3.42-5.36,3.42
			s0.67,1.206,2.213,2.011l-2.213,2.144v0.471h0.468L13.589,3.361V2.894H13.118z M5.543,10.467c-1.07-0.468-1.676-1.205-1.944-1.542
			c0.203-0.467,0.74-1.473,2.078-2.144C5.612,7.05,5.543,7.317,5.543,7.652c0,0.737,0.337,1.476,0.87,1.945L5.543,10.467z
			 M7.019,8.188L6.348,8.322c0,0-0.2-0.337-0.2-0.805c0-0.536,0.265-1.005,0.265-1.005C6.751,6.31,7.288,6.31,7.288,6.31
			S6.951,6.916,6.951,7.452C6.885,7.92,7.019,8.188,7.019,8.188L7.019,8.188z M7.019,8.188"/>
	</g>
	<g>
		<path fill="#04897C" d="M12.587,16.513H3.926C1.761,16.513,0,14.752,0,12.587v-8.66C0,1.762,1.761,0,3.926,0h8.661
			c2.165,0,3.926,1.762,3.926,3.927v8.66C16.513,14.752,14.751,16.513,12.587,16.513z M3.926,0.751
			c-1.751,0-3.176,1.424-3.176,3.176v8.66c0,1.751,1.425,3.176,3.176,3.176h8.661c1.751,0,3.175-1.425,3.175-3.176v-8.66
			c0-1.752-1.424-3.176-3.175-3.176H3.926z"/>
	</g>
</g>
</svg>
