<?xml version="1.0" encoding="utf-8"?>
<!-- Generator: Adobe Illustrator 16.0.0, SVG Export Plug-In . SVG Version: 6.00 Build 0)  -->
<!DOCTYPE svg PUBLIC "-//W3C//DTD SVG 1.1//EN" "http://www.w3.org/Graphics/SVG/1.1/DTD/svg11.dtd">
<svg version="1.1" id="Layer_1" xmlns="http://www.w3.org/2000/svg" xmlns:xlink="http://www.w3.org/1999/xlink" x="0px" y="0px"
	 width="16.513px" height="16.513px" viewBox="0 0 16.513 16.513" enable-background="new 0 0 16.513 16.513" xml:space="preserve">
<g>
	<g>
		<path fill="#04897C" d="M12.587,16.513H3.926C1.761,16.513,0,14.752,0,12.587v-8.66C0,1.762,1.761,0,3.926,0h8.661
			c2.165,0,3.926,1.762,3.926,3.927v8.66C16.513,14.752,14.751,16.513,12.587,16.513z M3.926,0.751
			c-1.751,0-3.176,1.424-3.176,3.176v8.66c0,1.751,1.425,3.176,3.176,3.176h8.661c1.751,0,3.175-1.425,3.175-3.176v-8.66
			c0-1.752-1.424-3.176-3.175-3.176H3.926z"/>
	</g>
	<g>
		<path fill="#04897C" d="M12.226,4.863c-0.344-0.344-0.758-0.516-1.243-0.516H9.028c-0.054,0-0.095,0.012-0.126,0.04
			C8.872,4.414,8.851,4.453,8.841,4.506c-0.01,0.052-0.017,0.101-0.018,0.143c-0.002,0.043,0,0.097,0.003,0.163
			C8.83,4.876,8.832,4.917,8.832,4.934c0.013,0.032,0.016,0.06,0.013,0.082C8.84,5.038,8.854,5.056,8.887,5.071
			c0.033,0.014,0.049,0.026,0.049,0.034c0,0.008,0.023,0.014,0.07,0.018c0.047,0.004,0.071,0.006,0.071,0.006h1.906
			c0.269,0,0.499,0.096,0.69,0.287c0.192,0.192,0.287,0.421,0.287,0.69v4.301c0,0.269-0.095,0.499-0.287,0.69
			c-0.191,0.191-0.422,0.288-0.69,0.288H9.028c-0.054,0-0.095,0.012-0.126,0.04c-0.03,0.027-0.051,0.065-0.061,0.119
			c-0.01,0.052-0.016,0.1-0.018,0.143c-0.002,0.042,0,0.097,0.003,0.162c0.005,0.065,0.006,0.106,0.006,0.123
			c0,0.053,0.02,0.099,0.059,0.137c0.038,0.038,0.084,0.058,0.138,0.058h1.954c0.485,0,0.899-0.172,1.243-0.517
			c0.345-0.343,0.517-0.758,0.517-1.242V6.106C12.741,5.622,12.57,5.207,12.226,4.863L12.226,4.863z M12.226,4.863"/>
		<g>
			<path fill="#04897C" d="M6.899,11.537c-0.187,0-0.356-0.07-0.49-0.204c-0.133-0.133-0.204-0.303-0.204-0.489v-0.98H4.464
				c-0.185,0-0.353-0.069-0.487-0.201C3.841,9.524,3.771,9.356,3.771,9.169V7.343c0-0.188,0.072-0.358,0.207-0.491
				C4.11,6.721,4.279,6.65,4.464,6.65h1.741V5.669c0-0.187,0.071-0.356,0.204-0.489c0.27-0.268,0.713-0.267,0.979,0l2.587,2.587
				c0.133,0.133,0.204,0.303,0.204,0.489s-0.071,0.355-0.204,0.489l-2.587,2.587C7.256,11.465,7.086,11.537,6.899,11.537z
				 M4.549,9.084h2.435v1.553l2.38-2.381L6.962,5.855l0.021,1.574H4.549V9.084z"/>
		</g>
	</g>
</g>
</svg>
