<?xml version="1.0" encoding="utf-8"?>
<!-- Generator: Adobe Illustrator 16.0.0, SVG Export Plug-In . SVG Version: 6.00 Build 0)  -->
<!DOCTYPE svg PUBLIC "-//W3C//DTD SVG 1.1//EN" "http://www.w3.org/Graphics/SVG/1.1/DTD/svg11.dtd">
<svg version="1.1" id="Layer_1" xmlns="http://www.w3.org/2000/svg" xmlns:xlink="http://www.w3.org/1999/xlink" x="0px" y="0px"
	 width="28.42px" height="28.42px" viewBox="0 0 28.42 28.42" enable-background="new 0 0 28.42 28.42" xml:space="preserve">
<g>
	<path fill="#FFFFFF" d="M22.388,10.69V7.821c0-4.087-3.669-7.411-8.176-7.411c-4.511,0-8.18,3.324-8.18,7.411v2.869
		c-1.739,0.299-3.067,1.812-3.067,3.639v9.987c0,2.037,1.658,3.693,3.695,3.693h15.101c2.037,0,3.695-1.656,3.695-3.693v-9.989
		C25.456,12.503,24.128,10.989,22.388,10.69L22.388,10.69z M7.054,7.821c0-3.523,3.212-6.39,7.158-6.39
		c3.945,0,7.155,2.866,7.155,6.39v2.81H7.054V7.821z M24.435,24.316c0,1.474-1.201,2.672-2.674,2.672H6.66
		c-1.472,0-2.671-1.198-2.671-2.672v-9.989c0-1.473,1.199-2.672,2.671-2.672h15.101c1.473,0,2.674,1.199,2.674,2.672V24.316z
		 M24.435,24.316"/>
	<path fill="#FFFFFF" d="M14.212,14.72c-1.129,0-2.047,0.92-2.047,2.047v3.065c0,1.127,0.918,2.047,2.047,2.047
		c1.125,0,2.044-0.92,2.044-2.047v-3.065C16.256,15.64,15.337,14.72,14.212,14.72L14.212,14.72z M15.232,19.832
		c0,0.563-0.46,1.022-1.021,1.022c-0.564,0-1.023-0.459-1.023-1.022v-3.065c0-0.562,0.459-1.023,1.023-1.023
		c0.561,0,1.021,0.461,1.021,1.023V19.832z M15.232,19.832"/>
</g>
</svg>
