<?xml version="1.0" encoding="utf-8"?>
<!-- Generator: Adobe Illustrator 16.0.0, SVG Export Plug-In . SVG Version: 6.00 Build 0)  -->
<!DOCTYPE svg PUBLIC "-//W3C//DTD SVG 1.1//EN" "http://www.w3.org/Graphics/SVG/1.1/DTD/svg11.dtd">
<svg version="1.1" id="Layer_1" xmlns="http://www.w3.org/2000/svg" xmlns:xlink="http://www.w3.org/1999/xlink" x="0px" y="0px"
	 width="28.425px" height="28.424px" viewBox="0 0 28.425 28.424" enable-background="new 0 0 28.425 28.424" xml:space="preserve">
<g>
	<path fill="#FFFFFF" d="M28.425,14.211C28.425,6.377,22.048,0,14.212,0C6.377,0,0,6.377,0,14.211c0,4.139,1.778,7.871,4.613,10.471
		L4.6,24.695l0.459,0.389c0.03,0.025,0.064,0.044,0.094,0.071c0.244,0.2,0.499,0.394,0.756,0.579
		c0.083,0.061,0.167,0.121,0.252,0.182c0.278,0.189,0.561,0.37,0.85,0.541c0.064,0.038,0.127,0.072,0.19,0.11
		c0.316,0.178,0.642,0.351,0.972,0.505c0.025,0.012,0.048,0.023,0.074,0.036c1.08,0.499,2.233,0.868,3.437,1.088
		c0.034,0.004,0.063,0.009,0.096,0.015c0.373,0.065,0.752,0.116,1.136,0.15c0.045,0.005,0.094,0.008,0.139,0.014
		c0.381,0.029,0.768,0.05,1.159,0.05c0.386,0,0.77-0.021,1.148-0.05c0.048-0.006,0.096-0.009,0.144-0.011
		c0.381-0.035,0.755-0.087,1.125-0.148c0.032-0.005,0.066-0.014,0.098-0.019c1.186-0.212,2.321-0.572,3.387-1.062
		c0.04-0.018,0.08-0.035,0.119-0.054c0.32-0.151,0.63-0.313,0.936-0.485c0.076-0.042,0.151-0.086,0.228-0.131
		c0.277-0.163,0.552-0.331,0.817-0.517c0.096-0.062,0.189-0.133,0.283-0.202c0.227-0.162,0.452-0.33,0.666-0.506
		c0.048-0.039,0.102-0.074,0.149-0.113l0.473-0.395l-0.015-0.014C26.627,22.121,28.425,18.374,28.425,14.211L28.425,14.211z
		 M1.034,14.211c0-7.267,5.91-13.177,13.178-13.177s13.178,5.91,13.178,13.177c0,3.917-1.719,7.438-4.44,9.853
		c-0.151-0.104-0.302-0.199-0.461-0.279l-4.376-2.187c-0.391-0.197-0.636-0.59-0.636-1.03v-1.528
		c0.101-0.125,0.209-0.267,0.319-0.423c0.567-0.8,1.021-1.69,1.353-2.647c0.656-0.311,1.078-0.964,1.078-1.701v-1.833
		c0-0.446-0.164-0.879-0.458-1.223V8.801c0.025-0.268,0.122-1.781-0.974-3.03c-0.951-1.085-2.494-1.638-4.583-1.638
		c-2.089,0-3.631,0.553-4.583,1.638c-1.095,1.249-1,2.763-0.974,3.03v2.413c-0.292,0.341-0.457,0.777-0.457,1.223v1.833
		c0,0.57,0.255,1.101,0.692,1.459c0.418,1.64,1.279,2.883,1.6,3.301v1.496c0,0.422-0.233,0.81-0.6,1.013l-4.089,2.227
		c-0.129,0.07-0.26,0.153-0.389,0.248C2.728,21.599,1.034,18.101,1.034,14.211L1.034,14.211z M21.943,24.873
		c-0.181,0.132-0.365,0.261-0.552,0.383c-0.085,0.055-0.171,0.11-0.257,0.166c-0.245,0.151-0.492,0.293-0.747,0.43
		c-0.055,0.026-0.11,0.054-0.167,0.084c-0.583,0.298-1.187,0.556-1.805,0.762c-0.02,0.008-0.043,0.016-0.065,0.022
		c-0.324,0.109-0.652,0.202-0.984,0.286h-0.003c-0.336,0.084-0.674,0.151-1.015,0.209c-0.01,0-0.02,0.003-0.027,0.007
		c-0.32,0.049-0.646,0.087-0.969,0.117c-0.059,0.004-0.116,0.007-0.175,0.013c-0.32,0.022-0.644,0.038-0.966,0.038
		c-0.328,0-0.654-0.016-0.979-0.041c-0.057-0.003-0.114-0.008-0.168-0.013c-0.328-0.027-0.654-0.068-0.978-0.118l-0.042-0.008
		c-0.685-0.115-1.356-0.282-2.012-0.501c-0.02-0.008-0.04-0.016-0.061-0.023c-0.325-0.108-0.646-0.232-0.961-0.369
		c-0.003,0-0.005,0-0.007-0.002c-0.297-0.129-0.591-0.27-0.88-0.422c-0.038-0.021-0.076-0.038-0.115-0.059
		c-0.265-0.141-0.522-0.291-0.777-0.45c-0.075-0.048-0.15-0.096-0.224-0.147c-0.234-0.151-0.466-0.312-0.692-0.481
		c-0.022-0.019-0.044-0.036-0.067-0.054l0.047-0.027l4.089-2.229c0.702-0.384,1.138-1.119,1.138-1.92v-1.862l-0.119-0.144
		c-0.012-0.013-1.127-1.37-1.551-3.214l-0.046-0.203l-0.177-0.115C9.38,14.828,9.231,14.56,9.231,14.27v-1.833
		c0-0.239,0.103-0.463,0.287-0.633l0.172-0.154V8.774L9.685,8.706c0-0.013-0.154-1.258,0.721-2.254
		c0.748-0.852,2.029-1.284,3.806-1.284c1.771,0,3.048,0.429,3.795,1.274c0.875,0.986,0.731,2.254,0.731,2.264l-0.005,2.947
		l0.172,0.153c0.184,0.167,0.287,0.392,0.287,0.631v1.833c0,0.368-0.252,0.704-0.61,0.814l-0.257,0.079l-0.083,0.258
		c-0.306,0.946-0.74,1.82-1.29,2.599c-0.136,0.191-0.268,0.361-0.381,0.491l-0.126,0.145v1.913c0,0.833,0.462,1.582,1.207,1.955
		l4.375,2.188c0.028,0.013,0.056,0.028,0.083,0.044C22.055,24.795,22,24.833,21.943,24.873L21.943,24.873z M21.943,24.873"/>
</g>
</svg>
